<?xml version="1.0" standalone="no"?><!DOCTYPE svg PUBLIC "-//W3C//DTD SVG 1.1//EN" "http://www.w3.org/Graphics/SVG/1.1/DTD/svg11.dtd"><svg t="1752746149133" class="icon" viewBox="0 0 1024 1024" version="1.1" xmlns="http://www.w3.org/2000/svg" p-id="6113" xmlns:xlink="http://www.w3.org/1999/xlink" width="200" height="200"><path d="M455.4432 459.7568c4.0448 4.0448-0.128 81.5936-22.6304 104.0896-15.5392 15.5392-34.4192 23.68-54.3296 17.4976l-221.4016 213.6256a26.0608 26.0608 0 0 1-36.8512-36.8512l213.632-221.3952c-6.1888-19.9104 1.952-38.7968 17.4912-54.336 22.496-22.496 100.0448-26.6752 104.0896-22.6304z m-11.4304 11.4304h-0.16c-0.928 0-1.9136 0.0128-2.944 0.032-8.2816 0.1792-18.56 1.0624-28.7232 2.56-24.5888 3.6288-44.3136 10.1952-51.776 17.6576-13.632 13.6256-18.5856 27.7824-14.3296 41.4912l2.2464 7.232-5.2608 5.4528-213.6256 221.3952a13.2608 13.2608 0 0 0 18.752 18.752l221.4016-213.632 5.4528-5.248 7.232 2.24c13.7088 4.256 27.8592-0.704 41.4848-14.3296 7.4624-7.4624 14.0288-27.1872 17.6576-51.776 1.4976-10.1568 2.3808-20.4416 2.56-28.7232 0.0192-1.0304 0.032-2.016 0.032-2.944v-0.16z" fill="#2c2c2c" p-id="6114"></path><path d="M337.7792 532.16l45.2544 45.2608-9.4464 8.6528-44.448-44.448zM306.8672 564.608l43.68 43.68-9.2096 8.896-43.3088-43.3152z" fill="#2c2c2c" p-id="6115"></path><path d="M812.8 172.8a51.2 51.2 0 0 1 51.2 51.2v448a51.2 51.2 0 0 1-51.2 51.2H249.6a51.2 51.2 0 0 1-51.2-51.2V224a51.2 51.2 0 0 1 51.2-51.2h563.2z m0 12.8H249.6a38.4 38.4 0 0 0-38.4 38.4v448a38.4 38.4 0 0 0 38.4 38.4h563.2a38.4 38.4 0 0 0 38.4-38.4V224a38.4 38.4 0 0 0-38.4-38.4z" fill="#2c2c2c" p-id="6116"></path><path d="M198.4 288h659.2v12.8H198.4z" fill="#2c2c2c" p-id="6117"></path><path d="M288 198.4a38.4 38.4 0 1 1 0 76.8 38.4 38.4 0 0 1 0-76.8z m0 12.8a25.6 25.6 0 1 0 0 51.2 25.6 25.6 0 0 0 0-51.2zM358.4 204.8a19.2 19.2 0 0 1 19.2 19.2v25.6a19.2 19.2 0 0 1-38.4 0v-25.6a19.2 19.2 0 0 1 19.2-19.2z m0 12.8a6.4 6.4 0 0 0-6.4 6.4v25.6a6.4 6.4 0 0 0 12.8 0v-25.6a6.4 6.4 0 0 0-6.4-6.4zM409.6 204.8a19.2 19.2 0 0 1 19.2 19.2v25.6a19.2 19.2 0 0 1-38.4 0v-25.6a19.2 19.2 0 0 1 19.2-19.2z m0 12.8a6.4 6.4 0 0 0-6.4 6.4v25.6a6.4 6.4 0 0 0 12.8 0v-25.6a6.4 6.4 0 0 0-6.4-6.4zM460.8 204.8a19.2 19.2 0 0 1 19.2 19.2v25.6a19.2 19.2 0 0 1-38.4 0v-25.6a19.2 19.2 0 0 1 19.2-19.2z m0 12.8a6.4 6.4 0 0 0-6.4 6.4v25.6a6.4 6.4 0 0 0 12.8 0v-25.6a6.4 6.4 0 0 0-6.4-6.4z" fill="#2c2c2c" p-id="6118"></path><path d="M460.8 440.5888C452.352 343.3728 483.5712 264.7808 554.4704 204.8c55.6032-47.04 121.8176-73.792 198.656-80.2432a60.7232 60.7232 0 0 1 65.8048 60.512 58.624 58.624 0 0 1-59.9424 58.6048c-90.208-2.0352-152.6208 6.3424-187.2448 25.1264C529.9136 291.4944 492.928 348.7552 460.8 440.5888z" fill="#2c2c2c" p-id="6119"></path><path d="M471.168 440.7424c62.7648-74.72 140.416-108.2176 232.96-100.4928 72.5888 6.048 138.3232 33.9648 197.216 83.7312a60.7232 60.7232 0 0 1 3.744 89.3184 58.624 58.624 0 0 1-83.8272-0.9472c-62.3488-65.2224-112.4032-103.4368-150.1696-114.6368-45.6256-13.5296-112.2624 0.8128-199.9168 43.0272z" fill="#2c2c2c" p-id="6120"></path><path d="M499.7952 456.6656c94.24 25.3056 157.4144 81.5296 189.5296 168.6656 25.1904 68.3392 27.6736 139.712 7.456 214.1184a60.7232 60.7232 0 0 1-79.36 41.1392 58.624 58.624 0 0 1-34.5728-76.3712c32.7616-84.0704 46.24-145.5808 40.4288-184.544-7.0208-47.072-48.1792-101.408-123.4816-163.008z" fill="#2c2c2c" p-id="6121"></path><path d="M752.5888 118.1824c36.9408-3.104 69.4016 24.3328 72.5056 61.2736 0.1536 1.8624 0.2368 3.7376 0.2368 5.6128 0 35.9104-29.1136 65.024-65.024 65.024-0.4864 0-0.9792-0.0064-1.4656-0.0192-89.1712-2.0096-150.656 6.24-184.0448 24.352-40.1024 21.76-76.3008 77.8112-107.9552 168.2752l-9.8368 28.1152-2.5792-29.6768C445.792 341.888 477.824 261.2544 550.336 199.9168c56.6336-47.9168 124.1152-75.1744 202.2528-81.7344z m59.7504 62.3424a54.3232 54.3232 0 0 0-58.6816-49.5872c-75.5264 6.336-140.48 32.576-195.0592 78.7456-60.9728 51.584-91.84 117.0624-92.7296 196.8896l-0.0192 2.048 1.184-2.9824c29.1968-72.9216 62.272-120.064 99.648-141.3504l2.0096-1.1136c35.8656-19.456 99.2-27.9552 190.4384-25.9008l1.1776 0.0128a52.224 52.224 0 0 0 52.032-56.7616z" fill="#2c2c2c" p-id="6122"></path><path d="M905.472 419.0912c28.3136 23.9296 31.872 66.2784 7.9424 94.592-1.2096 1.4336-2.4768 2.816-3.8016 4.1408-25.3952 25.3888-66.56 25.3888-91.9552 0a64.64 64.64 0 0 1-1.024-1.0496c-61.632-64.4736-110.944-102.1184-147.36-112.9216-43.7376-12.9728-108.9728 1.0688-195.328 42.656l-26.8288 12.9216 19.1552-22.8032c64.0768-76.288 143.744-110.656 238.3936-102.7584 73.9264 6.1696 140.9152 34.6112 200.8064 85.2224z m-1.8304 86.336a54.3232 54.3232 0 0 0-6.432-76.5568c-57.888-48.9216-122.368-76.3072-193.6128-82.24-79.584-6.6432-147.712 17.824-204.7872 73.6448l-1.4592 1.4272 2.944-1.2608c72.2048-30.9248 128.928-40.8704 170.4128-29.4912l2.208 0.6336c39.1168 11.5968 89.9136 50.3744 152.9728 116.352l0.8256 0.832a52.224 52.224 0 0 0 76.928-3.3472z" fill="#2c2c2c" p-id="6123"></path><path d="M702.9568 841.1264c-9.7152 35.776-46.5984 56.896-82.368 47.1744a67.1232 67.1232 0 0 1-5.3632-1.696c-33.7408-12.288-51.136-49.6-38.8608-83.3408a64.64 64.64 0 0 1 0.512-1.3696c32.3968-83.104 45.6704-143.712 40.0704-181.28-6.7264-45.12-47.0208-98.304-121.2032-158.9952l-23.0528-18.8608 28.7616 7.7248c96.2176 25.8368 161.0368 83.52 193.8752 172.6336 25.6576 69.6064 28.192 142.336 7.6288 218.0096z m-79.0144 34.8224a54.3232 54.3232 0 0 0 66.6624-38.176c19.872-73.1456 17.4336-143.1552-7.2832-210.2336-27.6224-74.9376-78.592-126.336-153.2992-154.4768l-1.9136-0.7168 2.3936 2.1312c58.5408 52.3776 91.52 99.584 98.7456 141.984l0.3584 2.272c6.016 40.352-7.6608 102.784-40.8 187.8144l-0.4096 1.0944a52.224 52.224 0 0 0 35.5456 68.3072z" fill="#2c2c2c" p-id="6124"></path></svg>